<svg width="100" height="100" viewBox="0 0 100 100" fill="none" xmlns="http://www.w3.org/2000/svg">
<path fill-rule="evenodd" clip-rule="evenodd" d="M6.9481 61.6013C7.14437 62.3331 6.70986 63.0864 5.97829 63.2829C5.24672 63.4793 4.49319 63.0448 4.29672 62.3133C3.24241 58.386 2.67986 54.2582 2.67986 49.9999C2.67986 23.8223 23.9328 2.56934 50.1105 2.56934C54.3687 2.56934 58.4965 3.13189 62.4238 4.1862C77.8569 8.32992 90.1928 20.0727 95.1658 35.1493C96.7067 39.8217 97.541 44.8142 97.541 49.9999C97.541 76.1776 76.2881 97.4305 50.1105 97.4305C44.9248 97.4305 39.9322 96.5962 35.2599 95.0552C34.9143 94.941 34.6282 94.6942 34.4644 94.3692C34.3006 94.0442 34.2725 93.6674 34.3863 93.3217C34.5005 92.9761 34.7473 92.69 35.0723 92.5262C35.3974 92.3624 35.7741 92.3343 36.1199 92.4482C40.5216 93.9001 45.225 94.6854 50.1105 94.6854C74.7732 94.6854 94.7959 74.6625 94.7959 49.9999C94.7959 45.1144 94.0107 40.4111 92.5587 36.0093C87.8736 21.8048 76.252 10.7415 61.7118 6.83757C58.0116 5.84404 54.1224 5.31443 50.1105 5.31443C25.4479 5.31443 5.42496 25.3374 5.42496 49.9999C5.42496 54.0119 5.95457 57.9011 6.9481 61.6013ZM65.9287 36.1735C67.4818 34.6823 69.9534 34.7325 71.4446 36.2856C72.9359 37.8386 72.8857 40.3101 71.3326 41.8015L48.3956 63.8256C46.8959 65.2656 44.5305 65.2764 43.0175 63.8501L28.9142 50.554C27.3475 49.077 27.2748 46.606 28.7516 45.0393C30.2287 43.4729 32.6997 43.3999 34.2663 44.877L45.6691 55.627L65.9287 36.1735ZM33.3473 67.984C33.0918 68.2432 32.7438 68.3904 32.3799 68.3932C32.016 68.396 31.6658 68.2542 31.4063 67.999C31.1471 67.7434 30.9999 67.3954 30.9971 67.0314C30.9943 66.6675 31.1362 66.3172 31.3914 66.0578L33.3487 64.0703C33.6042 63.8112 33.9522 63.6641 34.3161 63.6613C34.6801 63.6586 35.0302 63.8004 35.2897 64.0556C35.5489 64.3111 35.6961 64.6591 35.6989 65.023C35.7016 65.387 35.5598 65.7372 35.3046 65.9966L33.3473 67.984ZM25.1083 64.9813C24.9181 65.7144 24.1685 66.1554 23.4352 65.9652C22.7018 65.775 22.261 65.0252 22.4512 64.2921L23.151 61.5937C23.2426 61.2414 23.4702 60.9399 23.784 60.7554C24.0977 60.5709 24.4718 60.5185 24.8242 60.6097C25.1765 60.7012 25.478 60.9289 25.6625 61.2426C25.8471 61.5563 25.8995 61.9305 25.8083 62.2829L25.1083 64.9813ZM35.2238 76.8705C34.8728 76.9671 34.4979 76.9204 34.1814 76.7407C33.8648 76.5611 33.6326 76.2631 33.5355 75.9123C33.4389 75.5613 33.4856 75.1864 33.6654 74.8699C33.8451 74.5533 34.1431 74.3211 34.494 74.2242L37.1812 73.4831C37.9114 73.2817 38.6679 73.7111 38.8693 74.4413C39.0706 75.1715 38.6412 75.928 37.911 76.1293L35.2238 76.8705ZM15.8583 89.5754L8.52261 96.9111C8.33872 97.0949 8.08937 97.1982 7.82937 97.1982C7.56937 97.1982 7.32002 97.0949 7.13614 96.9111L2.74417 92.519C2.56032 92.3351 2.45703 92.0857 2.45703 91.8257C2.45703 91.5657 2.56032 91.3163 2.74417 91.1325L10.0797 83.797L5.42574 81.2303C5.26106 81.1396 5.12595 81.0035 5.0365 80.8381C4.94706 80.6727 4.90706 80.4851 4.92128 80.2976C4.9355 80.1102 5.00333 79.9307 5.1167 79.7807C5.23006 79.6308 5.38417 79.5165 5.56065 79.4517L26.7324 71.6642C26.9081 71.5995 27.0986 71.5865 27.2815 71.6267C27.4643 71.6668 27.6319 71.7585 27.7642 71.8909C27.8966 72.0232 27.9884 72.1908 28.0285 72.3736C28.0687 72.5565 28.0557 72.747 27.991 72.9227L20.2034 94.0946C20.1386 94.2711 20.0243 94.4252 19.8743 94.5386C19.7244 94.6519 19.5449 94.7198 19.3575 94.734C19.17 94.7482 18.9824 94.7082 18.817 94.6188C18.6516 94.5293 18.5155 94.3942 18.4248 94.2295L15.8583 89.5754Z" fill="black"/>
</svg>
